<svg width="80" height="80" viewBox="0 0 80 80" fill="none" xmlns="http://www.w3.org/2000/svg">
<path d="M0 22.8571C0 10.2335 10.2335 0 22.8571 0H57.1429C69.7665 0 80 10.2335 80 22.8571V57.1429C80 69.7665 69.7665 80 57.1429 80H22.8571C10.2335 80 0 69.7665 0 57.1429V22.8571Z" fill="#1A1528"/>
<path d="M26.4091 61.5387L20 18.4619H32.136L38.545 61.5387H26.4091Z" fill="#FF8811"/>
<path d="M37.2051 18.6157C37.2051 18.6157 42.3753 16.83 46.7487 19.3408C50.7518 21.6389 53.2972 24.633 53.2025 29.2538C53.1107 33.7347 51.3287 36.3157 47.2955 38.2554C43.8116 39.9308 40.4776 38.2554 40.4776 38.2554L37.2051 18.6157Z" fill="#FF8811"/>
<path d="M40.1942 36.8728C40.1942 36.8728 46.7075 34.7887 52.0979 38.063C57.0318 41.06 60.1238 44.8859 59.8686 50.6716C59.6212 56.2819 57.3181 59.4624 52.2209 61.773C47.818 63.7689 43.7017 61.5716 43.7017 61.5716L40.1942 36.8728Z" fill="#FF8811"/>
</svg>
