<svg width="37" height="37" viewBox="0 0 37 37" fill="none" xmlns="http://www.w3.org/2000/svg">
<path d="M18.227 8.74763C18.8529 8.74763 19.3603 9.25504 19.3603 9.88096C19.3603 10.5069 18.8529 11.0143 18.227 11.0143C17.601 11.0143 17.0936 10.5069 17.0936 9.88096C17.0936 9.25504 17.601 8.74763 18.227 8.74763Z" fill="#1F1F1F"/>
<path d="M16.2333 27.5667H18.5M18.5 27.5667H20.7667M18.5 27.5667V16.2333H16.2333M35.5 18.5C35.5 27.8888 27.8888 35.5 18.5 35.5C9.11116 35.5 1.5 27.8888 1.5 18.5C1.5 9.11116 9.11116 1.5 18.5 1.5C27.8888 1.5 35.5 9.11116 35.5 18.5ZM19.3603 9.88096C19.3603 9.25504 18.8529 8.74763 18.227 8.74763C17.601 8.74763 17.0936 9.25504 17.0936 9.88096C17.0936 10.5069 17.601 11.0143 18.227 11.0143C18.8529 11.0143 19.3603 10.5069 19.3603 9.88096Z" stroke="#1F1F1F" stroke-width="2.5" stroke-linecap="round" stroke-linejoin="round"/>
</svg>
