<svg width="26" height="26" viewBox="0 0 26 26" fill="none" xmlns="http://www.w3.org/2000/svg">
<rect width="26" height="26" rx="10" fill="#F5F5F5"/>
<path d="M13 11.875L12.0626 13.9076L12.2501 14.5L13.3057 15.5557M13.3057 15.5557L15.25 17.125L16.375 19.375M13.3057 15.5557L14.875 11.875L13.375 10.375H12.2501L11.125 10.75L10.375 13M15.625 12.625L17.125 13.75M12.8125 16.7501L11.8751 17.875L10.75 19M15.25 8.125C15.25 8.74632 14.7463 9.25 14.125 9.25C13.5037 9.25 13 8.74632 13 8.125C13 7.50368 13.5037 7 14.125 7C14.7463 7 15.25 7.50368 15.25 8.125Z" stroke="#1F1F1F" stroke-linecap="round" stroke-linejoin="round"/>
</svg>
